<svg xmlns="http://www.w3.org/2000/svg" xmlns:xlink="http://www.w3.org/1999/xlink" width="64" zoomAndPan="magnify" viewBox="0 0 48 48" height="64" preserveAspectRatio="xMidYMid meet" version="1.0"><defs><clipPath id="355478b5cb"><path d="M 11 6 L 25 6 L 25 44.613281 L 11 44.613281 Z M 11 6 " clip-rule="nonzero"/></clipPath></defs><path fill="#fa6103" d="M 5.773438 26.722656 C 4.847656 26.019531 3.527344 25.90625 2.808594 26.949219 C 2.027344 28.195312 2.164062 29.828125 2.621094 31.164062 C 3.902344 34.933594 7.632812 36.9375 13.8125 40.628906 C 11.734375 36.824219 11.660156 36.683594 7.925781 29.835938 C 7.335938 28.757812 6.78125 27.488281 5.773438 26.722656 " fill-opacity="1" fill-rule="nonzero"/><path fill="#fa6103" d="M 12.640625 16.558594 C 11.355469 25.828125 14.457031 35.585938 22.003906 42.542969 C 21.160156 34.976562 21.476562 27.605469 22.757812 20.542969 C 23.324219 17.414062 24.710938 12.359375 21.558594 9.261719 C 18.691406 6.441406 13.855469 7.78125 12.640625 16.558594 " fill-opacity="1" fill-rule="nonzero"/><path fill="#fa6103" d="M 37.609375 28.347656 C 41.664062 26.441406 45.089844 26 45.726562 23.746094 C 46.207031 22.042969 44.695312 20.566406 43.355469 19.800781 C 37.296875 16.472656 27.824219 21.609375 28.808594 34.308594 C 31.097656 31.769531 34.503906 29.808594 37.609375 28.347656 " fill-opacity="1" fill-rule="nonzero"/><g clip-path="url(#355478b5cb)"><path fill="#ffffff" d="M 22.757812 20.542969 C 21.476562 27.605469 21.160156 34.976562 22.003906 42.542969 C 14.457031 35.585938 11.355469 25.828125 12.640625 16.558594 C 13.855469 7.78125 18.691406 6.441406 21.558594 9.261719 C 24.710938 12.359375 23.324219 17.414062 22.757812 20.542969 Z M 11.914062 15.148438 C 10.050781 25.46875 13.496094 36.585938 22.285156 44.050781 C 22.554688 44.28125 23.144531 44.164062 23.089844 43.714844 C 21.203125 28.882812 24.203125 19.492188 24.472656 15.691406 C 25.179688 5.785156 14.15625 2.734375 11.914062 15.148438 " fill-opacity="1" fill-rule="nonzero"/></g><path fill="#ffffff" d="M 2.621094 31.164062 C 2.164062 29.828125 2.027344 28.195312 2.808594 26.949219 C 3.527344 25.90625 4.847656 26.019531 5.773438 26.722656 C 6.78125 27.488281 7.335938 28.757812 7.925781 29.835938 C 11.660156 36.683594 11.734375 36.824219 13.8125 40.628906 C 7.632812 36.9375 3.902344 34.933594 2.621094 31.164062 Z M 8.367188 28.675781 C 7.730469 27.511719 7.015625 26.25 5.789062 25.625 C 4.4375 24.929688 2.929688 25.171875 2.03125 26.417969 C 2.003906 26.449219 1.976562 26.492188 1.957031 26.535156 C 0.503906 28.933594 1.640625 32.136719 3.210938 34.175781 C 5.191406 36.746094 7.738281 38.039062 14.820312 42.335938 C 15.234375 42.585938 15.6875 42.09375 15.464844 41.6875 C 15.449219 41.65625 8.382812 28.707031 8.367188 28.675781 " fill-opacity="1" fill-rule="nonzero"/><path fill="#ffffff" d="M 45.726562 23.746094 C 45.089844 26 41.664062 26.441406 37.609375 28.347656 C 34.503906 29.808594 31.097656 31.769531 28.808594 34.308594 C 27.824219 21.609375 37.296875 16.472656 43.355469 19.800781 C 44.695312 20.566406 46.207031 22.042969 45.726562 23.746094 Z M 33.640625 19.691406 C 30.792969 21.65625 28.957031 24.839844 28.222656 28.179688 C 27.695312 30.574219 27.683594 33.039062 27.976562 35.464844 C 28.035156 35.945312 28.5625 36.085938 28.855469 35.703125 C 31.585938 32.136719 37.40625 29.246094 41.460938 27.746094 C 43.140625 27.125 46.238281 26.179688 46.695312 23.75 C 47.503906 19.449219 39.8125 15.433594 33.640625 19.691406 " fill-opacity="1" fill-rule="nonzero"/></svg>